<svg width="543" height="323" viewBox="0 0 543 323" fill="none" xmlns="http://www.w3.org/2000/svg">
<path d="M455.616 140.303C459.091 132.589 461.04 124.153 461.04 115.357C461.04 77.1451 424.597 46.1429 379.68 46.1429C362.984 46.1429 347.39 50.4687 334.508 57.8228C311.033 23.2156 267.217 0 216.96 0C142.041 0 81.36 51.6223 81.36 115.357C81.36 117.304 81.4447 119.25 81.5295 121.197C34.0695 135.4 0 173.901 0 219.179C0 276.497 54.6637 323 122.04 323H433.92C493.838 323 542.4 281.688 542.4 230.714C542.4 186.085 505.11 148.811 455.616 140.303Z" fill="#1F2937"/>
<path d="M198.325 237L75.2 243.063L199.339 248.621L202.886 284.495L349.319 285L378.2 175.358H361.479L368.066 156.158H218.086L217.2 162L114.722 167.274L215.7 173L213.2 191.526L193.765 192.537V202.642L153.23 206.684L195.792 211.737L198.325 237Z" fill="#E7AF1E"/>
<path d="M224.673 191.526L193.765 192.537H247.981L265.715 175.863L369.08 175.358L372.626 134.937L337.665 93H237.079L236.327 95.0211L149.683 101.084L234.807 105.126L233.287 117.758L199.339 122.305L232.274 124.326L224.673 191.526Z" fill="#E6E7E8"/>
<path d="M338.678 111.189C340.198 101.589 337.665 93 337.665 93L372.626 134.937C372.626 134.937 370.6 133.421 354.892 131.4C339.185 129.379 331.585 129.379 331.585 129.379C335.131 123.316 337.158 120.789 338.678 111.189Z" fill="#BDBFC1"/>
</svg>
